<svg width="28" height="28" viewBox="0 0 28 28" fill="none" xmlns="http://www.w3.org/2000/svg">
    <path d="M3.02979 7.02001C5.33819 3.39923 9.38807 1 13.9986 1C19.0289 1 23.3888 3.85653 25.55 8.03483H13.9986C11.3237 8.03483 9.05919 9.7951 8.30434 12.2225L3.02979 7.02001Z"
          fill="#DD5044"/>
    <path d="M13.4563 26.9869H13.4375L15.3074 19.8205C17.9729 19.2254 19.9649 16.845 19.9649 14.001C19.9649 10.7122 17.3026 8.04362 14.0138 8.03735H25.5527C26.4767 9.82268 26.9997 11.8523 26.9997 14.001C26.9997 21.1799 21.1802 26.9994 14.0013 26.9994C13.8165 26.9963 13.6348 26.9932 13.4563 26.9869Z"
          fill="#FFCD41"/>
    <path d="M13.3689 26.9815C6.48128 26.6526 1 20.9677 1 13.9987C1 11.8531 1.51994 9.8329 2.43766 8.04757L2.9576 7.12985C2.98266 7.09226 3.00458 7.05468 3.02964 7.01709L8.30106 12.2196C8.12566 12.7803 8.0317 13.3785 8.0317 13.9955C8.0317 17.2906 10.7034 19.9592 13.9953 19.9592C14.4432 19.9592 14.8817 19.9091 15.3014 19.8151L13.5067 26.7152L13.4315 26.9376L13.3689 26.9815Z"
          fill="#17A05D"/>
    <path opacity="0.047"
          d="M13.4533 26.9842H13.4376L15.3044 19.8209C16.9488 19.4576 18.3395 18.4146 19.1632 17.002L19.2008 17.0239L13.4533 26.9842ZM3.04199 7.01978L8.31655 12.2223C8.14115 12.7829 8.04718 13.3812 8.04718 13.9982C8.04718 15.0945 8.34161 16.1218 8.85841 17.0051L8.82083 17.027L3.04199 7.01978ZM25.5622 8.03459L18.4334 9.99846C17.3434 8.79258 15.7648 8.03459 14.0108 8.03459H25.5622Z"
          fill="black"/>
    <path d="M8.03467 13.9983C8.03467 17.2933 10.7064 19.9619 13.9983 19.9619C17.2902 19.9619 19.9619 17.2933 19.9619 13.9983C19.9619 10.7033 17.2933 8.03467 13.9983 8.03467C10.7033 8.03467 8.03467 10.7033 8.03467 13.9983Z"
          fill="white"/>
    <path d="M9.25635 13.9982C9.25635 16.6167 11.38 18.7403 13.9984 18.7403C16.6169 18.7403 18.7405 16.6167 18.7405 13.9982C18.7405 11.3797 16.6169 9.2561 13.9984 9.2561C11.38 9.2561 9.25635 11.3797 9.25635 13.9982Z"
          fill="#4A8AF4"/>
</svg>
