<svg width="28" height="28" viewBox="0 0 28 28" fill="none" xmlns="http://www.w3.org/2000/svg">
    <path d="M2.26562 25.3626C2.22668 25.0794 2.15235 24.7962 2.15235 24.5166C2.14527 17.5503 2.14527 10.5876 2.14881 3.62141C2.14881 3.40902 2.19483 3.1931 2.21606 2.98071C6.08501 6.60188 9.81592 10.3646 13.522 14.1522C9.7699 17.8866 6.01776 21.6246 2.26562 25.3626Z"
          fill="#4285F2"/>
    <path d="M13.5223 14.1522C9.81616 10.3647 6.08526 6.60193 2.21631 2.97722C2.86408 0.860449 4.82865 -0.0563464 6.71887 1.00558C10.9949 3.41615 15.2249 5.9046 19.4761 8.36473C17.5399 10.2974 15.6037 12.2301 13.6639 14.1628C13.6179 14.1628 13.5718 14.1593 13.5223 14.1522Z"
          fill="#36A854"/>
    <path d="M13.5222 14.1521C13.5682 14.1592 13.6177 14.1627 13.6638 14.1627C15.5575 16.0919 17.4513 18.0246 19.3451 19.9538C15.115 22.3926 10.8992 24.8563 6.64796 27.2598C4.88516 28.258 2.55955 27.1926 2.26221 25.359C6.01788 21.6245 9.77002 17.8865 13.5222 14.1521Z"
          fill="#E84537"/>
    <path d="M19.3449 19.9538C17.4511 18.0246 15.5573 16.0919 13.6636 14.1627C15.6034 12.23 17.5396 10.2973 19.4758 8.36816C21.3236 9.41593 23.1961 10.4177 25.0085 11.5256C27.0474 12.7716 27.0863 15.4654 25.0687 16.7114C23.2032 17.8582 21.2563 18.8777 19.3449 19.9538Z"
          fill="#FABB06"/>
</svg>
